<svg xmlns="http://www.w3.org/2000/svg" viewBox="0 0 350 330">
  <defs>
    <clipPath id="window">
      <path
        d="M275,225.43H257.87a17.6,17.6,0,0,1-17.52-17.58V170a17.6,17.6,0,0,1,17.52-17.58H275A17.6,17.6,0,0,1,292.51,170v37.83A17.61,17.61,0,0,1,275,225.43Z"
      />
    </clipPath>
  </defs>

  <animate id="journeysAnimation" begin="indefinite" />

  <g id="dirigible">
    <animate
      id="dirigibleAnimation"
      attributeType="CSS"
      attributeName="opacity"
      dur="0.5s"
      begin="journeysAnimation.begin + 2.5s"
      end="journeysAnimation.end"
      from="1"
      to="0"
      fill="freeze"
    />

    <g class="cabin" transform-origin="205 235">
      <animateTransform
        attributeName="transform"
        type="translate"
        values="0 -2.5; 0 0; 0 -2.5"
        keyTimes="0; 0.5; 1"
        begin="journeysAnimation.begin"
        end="journeysAnimation.end"
        repeatCount="indefinite"
        additive="sum"
        dur="1s"
      />

      <animateTransform
        begin="journeysAnimation.begin"
        end="journeysAnimation.end"
        attributeName="transform"
        type="scale"
        values="1 0.95; 1 1; 1 0.8; 1 1; 1 0.95"
        keyTimes="0; 0.25; 0.5; 0.75; 1"
        repeatCount="indefinite"
        additive="sum"
        dur="2s"
      />

      <animateTransform
        attributeName="transform"
        type="skewX"
        begin="journeysAnimation.begin"
        end="journeysAnimation.end"
        values="4; 0; -4; 0; 4"
        keyTimes="0; 0.25; 0.5; 0.75; 1"
        repeatCount="indefinite"
        additive="sum"
        dur="2s"
      />

      <path
        d="M175.44,249.28h48.36a13.27,13.27,0,0,0,13-10.65l3.74-18.32H172.36v25.89A3.09,3.09,0,0,0,175.44,249.28Z"
        fill="none"
        stroke="#fff"
        stroke-linecap="round"
        stroke-linejoin="round"
        stroke-width="2"
      />
      <path
        d="M235.79,241.69h-9.22a8.31,8.31,0,0,1-8.28-8.31V220.31"
        fill="none"
        stroke="#fff"
        stroke-linecap="round"
        stroke-miterlimit="10"
        stroke-width="2"
      />
      <path
        d="M204.25,231.88h-2.05a3.45,3.45,0,0,0-3.43,3.45v2.92a3.45,3.45,0,0,0,3.43,3.45h2.05a3.45,3.45,0,0,0,3.43-3.45v-2.92A3.44,3.44,0,0,0,204.25,231.88Z"
        fill="none"
        stroke="#fff"
        stroke-linecap="round"
        stroke-linejoin="round"
        stroke-width="2"
      >
        <animate
          attributeType="CSS"
          attributeName="opacity"
          dur="0.01s"
          begin="journeysAnimation.begin + 2.5s"
          end="journeysAnimation.end"
          from="1"
          to="0"
          fill="freeze"
        />
      </path>

      <path
        d="M185.64,231.88h-2.05a3.45,3.45,0,0,0-3.43,3.45v2.92a3.45,3.45,0,0,0,3.43,3.45h2.05a3.45,3.45,0,0,0,3.43-3.45v-2.92A3.45,3.45,0,0,0,185.64,231.88Z"
        fill="none"
        stroke="#fff"
        stroke-linecap="round"
        stroke-linejoin="round"
        stroke-width="2"
      />
    </g>

    <path
      d="M205,227.08c43.38,0,74.86-15.55,74.86-37s-31.48-37-74.86-37c-27.94,0-55.36,13.53-73.46,24.87a14.3,14.3,0,0,0,0,24.21c18.09,11.33,45.52,24.87,73.46,24.87"
      fill="#068e4d"
    />
    <path
      d="M205,227.08c43.38,0,74.86-15.55,74.86-37s-31.48-37-74.86-37c-27.94,0-55.36,13.53-73.46,24.87a14.3,14.3,0,0,0,0,24.21C149.63,213.54,177.06,227.08,205,227.08Z"
      fill="none"
      stroke="#fff"
      stroke-width="2"
    />
    <path
      d="M205 178.63C176.5 183.91 148.92 182.76 132.18 187C128.23 188 126.19 188.38 126.11 190.06C126.028 187.789 126.546 185.538 127.612 183.531C128.678 181.524 130.253 179.834 132.18 178.63C148.92 168.13 176.76 153.95 204.99 153.95C249.8 153.95 278.63 169.95 278.63 189.7C278.63 189.82 278.63 189.94 278.63 190.07C277 183.531 249.5 180 205 178.63Z"
      fill="#36e69a"
    />
    <path
      d="M132.18,195.12c16.74,4.27,44.58,10,72.81,10,44.14,0,72.75-6.32,73.6-14.18-0.86,19.34-29.45,34.86-73.6,34.86-28.23,0-56.07-14.19-72.81-24.68a12.88,12.88,0,0,1-6-10.18c0.26,1.61,2.26,3.18,6,4.14"
      fill="#068e4d"
    />

    <path
      d="M132.18,186.12c16.74-4.27,44.58-10,72.81-10,44.53,0,73.26,6.43,73.61,14.38,0,0.17,0,.34,0,0.51-0.85,7.86-29.45,14.17-73.6,14.17-28.23,0-56.07-5.76-72.81-10-3.79-1-5.79-2.53-6-4.13l0-.51c0.13-1.69,2.15-3.36,6.1-4.37"
      fill="#25b774"
    >
      <animate
        attributeName="d"
        values="
       M 132.18 186.12 C 140.55 183.985 151.697 180.705 164.281 177.959 C 176.865 175.213 190.885 173 205 173 C 249.53 173 278.25 182.55 278.6 190.5 C 278.6 190.67 278.6 190.84 278.6 191.01 C 277.75 198.87 249.15 202 205 202 C 176.77 202 148.93 199.42 132.19 195.18 C 128.4 194.18 126.4 192.65 126.19 191.05 L 126.19 190.54 C 126.32 188.85 128.34 187.18 132.29 186.17 M 202.395 190.65 L 202.395 190.65 L 202.395 190.65 L 202.395 190.65 L 202.395 190.65 L 202.395 190.65 L 202.395 190.65 L 202.395 190.65 L 202.395 190.65;
       M 132.19 187 C 132.19 187 132.19 187 132.19 187 C 148.93 182.73 176.76 178.5 204.99 178.5 C 249.52 178.5 278.6 184.5 278.6 190.5 C 278.6 190.67 278.6 190.84 278.6 191.01 C 275.5 201.5 249.14 209.5 204.99 209.5 C 176.76 209.5 148.5 200.5 132.19 195.18 C 128.4 194.18 126.4 192.65 126.19 191.05 L 126.19 190.54 C 126.32 188.85 128.24 188.01 132.19 187 M 202.395 190.65 L 202.395 190.65 L 202.395 190.65 L 202.395 190.65 L 202.395 190.65 L 202.395 190.65 L 202.395 190.65 L 202.395 190.65 L 202.395 190.65;
       M 132.19 187 C 132.19 187 132.19 187 132.19 187 C 148.93 182.73 176.76 178.5 204.99 178.5 C 249.52 178.5 278.6 184.5 278.6 190.5 C 278.6 190.67 278.6 190.84 278.6 191.01 C 275.5 201.5 249.14 209.5 204.99 209.5 C 176.76 209.5 148.5 200.5 132.19 195.18 C 128.4 194.18 126.4 192.65 126.19 191.05 L 126.19 190.54 C 126.32 188.85 128.24 188.01 132.19 187 M 202.395 190.65 L 202.395 190.65 C 202.395 190.65 202.395 190.65 202.395 190.65 C 202.395 190.65 202.395 190.65 202.395 190.65 C 202.395 190.65 202.395 190.65 202.395 190.65 C 202.395 190.65 202.395 190.65 202.395 190.65 C 202.395 190.65 202.395 190.65 202.395 190.65 C 202.395 190.65 202.395 190.65 202.395 190.65 C 202.395 190.65 202.395 190.65 202.395 190.65;
       M 132.18 186.12 C 140.55 183.985 151.697 180.705 164.281 177.959 C 176.865 175.213 190.885 173 205 173 C 249.53 173 278.25 182.55 278.6 190.5 C 278.6 190.67 278.6 190.84 278.6 191.01 C 277.75 198.87 249.15 202 205 202 C 176.77 202 148.93 199.42 132.19 195.18 C 128.4 194.18 126.4 192.65 126.19 191.05 L 126.19 190.54 C 126.32 188.85 128.34 187.18 132.29 186.17 M 202.395 190.65 L 202.395 190.65 C 202.395 190.65 202.395 190.65 202.395 190.65 C 202.395 190.65 202.395 190.65 202.395 190.65 C 202.395 190.65 202.395 190.65 202.395 190.65 C 202.395 190.65 202.395 190.65 202.395 190.65 C 202.395 190.65 202.395 190.65 202.395 190.65 C 202.395 190.65 202.395 190.65 202.395 190.65 C 202.395 190.65 202.395 190.65 202.395 190.65
       "
        keyTimes="0; 0.5; 0.5; 1"
        dur="2s"
        begin="journeysAnimation.begin"
        end="journeysAnimation.end"
        repeatCount="indefinite"
      />
    </path>

    <g class="fins">
      <g class="fin-top-back">
        <animateTransform
          attributeName="transform"
          type="translate"
          values="0, 2.5; 0, -2.5; 0, 2.5"
          keyTimes="0; 0.5; 1"
          repeatCount="indefinite"
          restart="never"
          dur="2s"
          begin="journeysAnimation.begin"
          end="journeysAnimation.end"
        />
        <path
          d="M123.23,173.34h9.16a3.29,3.29,0,0,1,3.29,3.3v5.71a3.29,3.29,0,0,1-3.29,3.3H115.57a1.32,1.32,0,0,1-1.32-1.32v-2a9,9,0,0,1,9-9"
          fill="#068e4d"
        />
        <path
          d="M123.23,173.34h9.16a3.29,3.29,0,0,1,3.29,3.3v5.71a3.29,3.29,0,0,1-3.29,3.3H115.57a1.32,1.32,0,0,1-1.32-1.32v-2A9,9,0,0,1,123.23,173.34Z"
          fill="none"
          stroke="#fff"
          stroke-linecap="round"
          stroke-linejoin="round"
          stroke-width="2"
        />
      </g>

      <g class="fin-bottom-back">
        <animateTransform
          attributeName="transform"
          type="translate"
          values="0, 2.5; 0, -2.5; 0, 2.5"
          keyTimes="0; 0.5; 1"
          repeatCount="indefinite"
          restart="never"
          dur="2s"
          begin="journeysAnimation.begin"
          end="journeysAnimation.end"
        />

        <path
          d="M123.23,207.39h9.16a3.29,3.29,0,0,0,3.29-3.3v-5.71a3.29,3.29,0,0,0-3.29-3.3H115.57a1.32,1.32,0,0,0-1.32,1.32v2a9,9,0,0,0,9,9"
          fill="#068e4d"
        />
        <path
          d="M123.23,207.39h9.16a3.29,3.29,0,0,0,3.29-3.3v-5.71a3.29,3.29,0,0,0-3.29-3.3H115.57a1.32,1.32,0,0,0-1.32,1.32v2A9,9,0,0,0,123.23,207.39Z"
          fill="none"
          stroke="#fff"
          stroke-linecap="round"
          stroke-linejoin="round"
          stroke-width="2"
        />
      </g>
      <g class="fin-top-front">
        <animateTransform
          attributeName="transform"
          type="translate"
          values="0, -2.5; 0, 2.5; 0, -2.5"
          keyTimes="0; 0.5; 1"
          repeatCount="indefinite"
          restart="never"
          dur="2s"
          begin="journeysAnimation.begin"
          end="journeysAnimation.end"
        />
        <path
          d="M123.23,173.34h9.16a3.29,3.29,0,0,1,3.29,3.3v5.71a3.29,3.29,0,0,1-3.29,3.3H115.57a1.32,1.32,0,0,1-1.32-1.32v-2a9,9,0,0,1,9-9"
          fill="#068e4d"
        />
        <path
          d="M123.23,173.34h9.16a3.29,3.29,0,0,1,3.29,3.3v5.71a3.29,3.29,0,0,1-3.29,3.3H115.57a1.32,1.32,0,0,1-1.32-1.32v-2A9,9,0,0,1,123.23,173.34Z"
          fill="none"
          stroke="#fff"
          stroke-linecap="round"
          stroke-linejoin="round"
          stroke-width="2"
        />
      </g>
      <g id="fin-bottom-front">
        <animateTransform
          attributeName="transform"
          type="translate"
          values="0, -2.5; 0, 2.5; 0, -2.5"
          keyTimes="0; 0.5; 1"
          repeatCount="indefinite"
          restart="never"
          dur="2s"
          begin="journeysAnimation.begin"
          end="journeysAnimation.end"
        />

        <path
          d="M123.23,207.39h9.16a3.29,3.29,0,0,0,3.29-3.3v-5.71a3.29,3.29,0,0,0-3.29-3.3H115.57a1.32,1.32,0,0,0-1.32,1.32v2a9,9,0,0,0,9,9"
          fill="#068e4d"
        />
        <path
          id="fin-back-bottom"
          d="M123.23,207.39h9.16a3.29,3.29,0,0,0,3.29-3.3v-5.71a3.29,3.29,0,0,0-3.29-3.3H115.57a1.32,1.32,0,0,0-1.32,1.32v2A9,9,0,0,0,123.23,207.39Z"
          fill="none"
          stroke="#fff"
          stroke-linecap="round"
          stroke-linejoin="round"
          stroke-width="2"
        />
      </g>
    </g>
  </g>

  <g id="clouds">
    <g id="cloud-group-2">
      <animate
        id="cloudGroup2"
        attributeType="CSS"
        attributeName="opacity"
        dur="3s"
        values="0; 1; 1; 0; 0"
        keyTimes="0; 0.11; 0.55; 0.66; 1"
        fill="freeze"
        begin="journeysAnimation.begin"
        end="journeysAnimation.end"
      />

      <animateTransform
        attributeName="transform"
        type="translate"
        values="240, 0; -40, 0; 0, 0"
        keyTimes="0; 0.66; 1"
        restart="never"
        dur="3s"
        begin="journeysAnimation.begin"
        end="journeysAnimation.end"
      />

      <line
        x1="68.95"
        y1="107.8"
        x2="131.86"
        y2="107.8"
        fill="none"
        stroke="#fff"
        stroke-linecap="round"
        stroke-miterlimit="10"
        stroke-width="2"
      >
        <animateTransform
          attributeName="transform"
          type="translate"
          values="-10, 0; 0, 0; 0, 0"
          keyTimes="0; 0.66; 1"
          restart="never"
          dur="3s"
          begin="journeysAnimation.begin"
          end="journeysAnimation.end"
        />
      </line>
      <g>
        <path
          d="M41.77,97.54H77.06a12.4,12.4,0,1,1,24.8,0h17.93"
          fill="none"
          stroke="#fff"
          stroke-linecap="round"
          stroke-miterlimit="10"
          stroke-width="2"
        />
      </g>
    </g>

    <g id="cloud-group-1" opacity="0">
      <animate
        id="cloudGroup1"
        attributeType="CSS"
        attributeName="opacity"
        dur="3s"
        begin="cloudGroup2.begin + 1.13s"
        end="journeysAnimation.end"
        values="0; 1; 1; 0; 0"
        keyTimes="0; 0.11; 0.55; 0.66; 1"
        fill="freeze"
      />

      <animateTransform
        begin="cloudGroup1.begin"
        end="journeysAnimation.end"
        attributeName="transform"
        type="translate"
        values="40, 0; -240, 0; 0, 0"
        keyTimes="0; 0.66; 1"
        restart="never"
        dur="3s"
      />
      <line
        x1="258.96"
        y1="93.19"
        x2="298.74"
        y2="93.19"
        fill="none"
        stroke="#fff"
        stroke-linecap="round"
        stroke-miterlimit="10"
        stroke-width="2"
      >
        <animateTransform
          begin="cloudGroup1.begin"
          end="journeysAnimation.end"
          attributeName="transform"
          type="translate"
          values="0, 0; 20, 0; 0, 0"
          keyTimes="0; 0.66; 1"
          restart="never"
          dur="3s"
        />
      </line>
      <g>
        <path
          d="M278.75,82.91H251.39a12.4,12.4,0,1,0-24.8,0H208.65"
          fill="none"
          stroke="#fff"
          stroke-linecap="round"
          stroke-miterlimit="10"
          stroke-width="2"
        />
        <line
          x1="287.01"
          y1="82.91"
          x2="309.21"
          y2="82.91"
          fill="none"
          stroke="#fff"
          stroke-linecap="round"
          stroke-miterlimit="10"
          stroke-width="2"
        />
      </g>
    </g>
  </g>

  <g id="tracks">
    <animate
      id="tracksAnimation"
      attributeType="CSS"
      attributeName="opacity"
      dur="0.5s"
      begin="journeysAnimation.begin + 2.5s"
      end="journeysAnimation.end"
      from="1"
      to="0"
      fill="freeze"
    />

    <line
      x1="106.25"
      y1="179.49"
      x2="84.05"
      y2="179.49"
      fill="#fff"
      stroke="#fff"
      stroke-linecap="round"
      stroke-miterlimit="10"
      stroke-width="2"
      stroke-dasharray="22.2"
      stroke-dashoffset="5"
    >
      <animate
        attributeType="XML"
        attributeName="stroke-dashoffset"
        dur="2s"
        end="tracksAnimation.end"
        values="0; 5; 0; 5; 0; 7; 0; 5; 0; 7; 0; 5; 0; 5; 0; 5; 0; 5; 0; 7; 0"
        keyTimes="0; 0.05; 0.1; 0.15; 0.2; 0.25; 0.3; 0.35; 0.4; 0.45; 0.5; 0.55; 0.6; 0.65; 0.7; 0.75; 0.80; 0.85; 0.9; 0.95; 1"
        repeatCount="indefinite"
        begin="journeysAnimation.begin"
      />
    </line>
    <line
      x1="106.25"
      y1="201.23"
      x2="84.05"
      y2="201.23"
      fill="none"
      stroke="#fff"
      stroke-linecap="round"
      stroke-miterlimit="10"
      stroke-width="2"
      stroke-dasharray="22.2"
      stroke-dashoffset="5"
    >
      <animate
        attributeType="XML"
        attributeName="stroke-dashoffset"
        dur="2s"
        begin="journeysAnimation.begin"
        end="tracksAnimation.end"
        values="0; 5; 0; 5; 0; 7; 0; 5; 0; 7; 0; 5; 0; 5; 0; 5; 0; 5; 0; 7; 0"
        keyTimes="0; 0.05; 0.1; 0.15; 0.2; 0.25; 0.3; 0.35; 0.4; 0.45; 0.5; 0.55; 0.6; 0.65; 0.7; 0.75; 0.80; 0.85; 0.9; 0.95; 1"
        repeatCount="indefinite"
      />
    </line>
    <line
      x1="106.25"
      y1="190.98"
      x2="68.77"
      y2="190.98"
      fill="none"
      stroke="#fff"
      stroke-linecap="round"
      stroke-miterlimit="10"
      stroke-width="2"
      stroke-dasharray="37,48"
      stroke-dashoffset="0"
    >
      <animate
        attributeType="XML"
        attributeName="stroke-dashoffset"
        dur="2s"
        begin="journeysAnimation.begin"
        end="tracksAnimation.end"
        values="5; 0; 5; 0; 7; 0; 5; 0; 7; 0; 5; 0; 5; 0; 5; 0; 5; 0; 7; 0; 5"
        keyTimes="0; 0.05; 0.1; 0.15; 0.2; 0.25; 0.3; 0.35; 0.4; 0.45; 0.5; 0.55; 0.6; 0.65; 0.7; 0.75; 0.80; 0.85; 0.9; 0.95; 1"
        repeatCount="indefinite"
      />
    </line>
  </g>

  <g id="mountain">
    <path
      d="M289.94,327.88H244.88L212.8,296.58a1.89,1.89,0,0,0-2.44,0l-10.2,10.23a1.72,1.72,0,0,1-2.25,0l-19-20.17a2.4,2.4,0,0,0-3.1,0l-26.42,25.64a1.71,1.71,0,0,1-2.25,0l-2.63-2.92a1.71,1.71,0,0,0-2.31,0L124.63,329H80.78"
      fill="none"
      stroke="#fff"
      stroke-linecap="round"
      stroke-miterlimit="10"
      stroke-width="2"
    >
      <animate
        attributeType="XML"
        attributeName="d"
        begin="windowAppearAnimation.begin"
        end="journeysAnimation.end"
        from="M 289.94 327.88 L 244.88 327.88 L 236.86 320.055 C 234.187 317.447 231.513 314.838 228.84 312.23 C 226.167 309.622 223.493 307.013 220.82 304.405 L 212.8 296.58 C 212.459 296.292 212.027 296.134 211.58 296.134 C 211.133 296.134 210.701 296.292 210.36 296.58 L 200.16 306.81 C 199.848 307.08 199.448 307.229 199.035 307.229 C 198.622 307.229 198.222 307.08 197.91 306.81 L 178.91 286.64 C 178.477 286.274 177.927 286.072 177.36 286.072 C 176.793 286.072 176.243 286.274 175.81 286.64 L 149.39 312.28 C 149.079 312.552 148.679 312.702 148.265 312.702 C 147.851 312.702 147.451 312.552 147.14 312.28 L 144.51 309.36 C 144.195 309.071 143.782 308.911 143.355 308.911 C 142.928 308.911 142.515 309.071 142.2 309.36 L 124.63 329 L 80.78 329"
        to="M 290 329 L 244.88 329 L 212.8 329 C 212.5 329 212.027 329 211.58 329 C 211.133 329 210.5 329 210.36 329 L 207.81 329 C 206.96 329 206.11 329 205.26 329 C 204.41 329 203.56 329 202.71 329 L 200.16 329 C 200 329 199.448 329 199.035 329 C 198.622 329 198 329 197.91 329 L 178.91 329 C 178.5 329 177.928 329 177.36 329 C 176.792 329 176.5 329 175.81 329 L 149.39 329 C 149 329 148.679 329 148.265 329 C 147.851 329 147.5 329 147.14 329 L 144.51 329 C 144 329 143.783 329 143.355 329 C 142.927 329 142.5 329 142.2 329 L 124.63 329 L 80.78 329"
        dur="0.5s"
        fill="freeze"
      />
    </path>
  </g>

  <g id="window-appear">
    <path
      d="M275,225.43H257.87a17.6,17.6,0,0,1-17.52-17.58V170a17.6,17.6,0,0,1,17.52-17.58H275A17.6,17.6,0,0,1,292.51,170v37.83A17.61,17.61,0,0,1,275,225.43Z"
      fill="none"
      stroke="#fff"
      stroke-width="2"
      transform-origin="193 244"
      transform="scale(0.144 0.133)"
      opacity="0"
    >
      <animate
        id="windowAppearAnimation"
        attributeType="CSS"
        attributeName="opacity"
        dur="0.1s"
        from="0"
        to="1"
        fill="freeze"
        begin="journeysAnimation.begin + 2.5s"
        end="journeysAnimation.end"
      />

      <animateTransform
        begin="windowAppearAnimation.begin"
        end="journeysAnimation.end"
        attributeName="transform"
        type="scale"
        to="1"
        dur="0.46s"
        fill="freeze"
        additive="sum"
      />
    </path>

    <path
      d="M275,225.43H257.87a17.6,17.6,0,0,1-17.52-17.58V170a17.6,17.6,0,0,1,17.52-17.58H275A17.6,17.6,0,0,1,292.51,170v37.83A17.61,17.61,0,0,1,275,225.43Z"
      fill="none"
      stroke="#fff"
      stroke-width="2"
      transform-origin="193 244"
      transform="scale(0.144 0.133)"
      opacity="0"
    >
      <animate
        attributeType="XML"
        attributeName="stroke-width"
        dur="0.5s"
        begin="windowAppearAnimation.begin"
        end="journeysAnimation.end"
        from="2"
        to="50"
        fill="freeze"
      />

      <animate
        attributeType="CSS"
        attributeName="opacity"
        dur="0.1s"
        begin="windowAppearAnimation.begin + 0.1s"
        end="journeysAnimation.end"
        from="1"
        to="0"
        fill="freeze"
      />

      <animateTransform
        begin="windowAppearAnimation.begin"
        end="journeysAnimation.end"
        attributeName="transform"
        type="scale"
        to="1"
        dur="0.46s"
        fill="freeze"
        additive="sum"
      />
    </path>
  </g>

  <g clip-path="url(#window)" opacity="0">
    <animate
      attributeType="CSS"
      attributeName="opacity"
      begin="windowAppearAnimation.end"
      end="journeysAnimation.end"
      dur="0.1s"
      from="0"
      to="1"
      fill="freeze"
    />

    <g transform="translate(180 140) scale(0.5)">
      <g id="clouds">
        <g id="cloud-group-2">
          <animate
            id="cloudGroup2"
            attributeType="CSS"
            attributeName="opacity"
            dur="3s"
            values="0; 1; 1; 0; 0"
            keyTimes="0; 0.11; 0.55; 0.66; 1"
            repeatCount="indefinite"
            fill="freeze"
            begin="journeysAnimation.begin"
            end="journeysAnimation.end"
          />

          <animateTransform
            attributeName="transform"
            type="translate"
            values="240, 0; -40, 0; 0, 0"
            keyTimes="0; 0.66; 1"
            repeatCount="indefinite"
            dur="3s"
            begin="journeysAnimation.begin"
            end="journeysAnimation.end"
          />

          <line
            x1="68.95"
            y1="107.8"
            x2="131.86"
            y2="107.8"
            fill="none"
            stroke="#fff"
            stroke-linecap="round"
            stroke-miterlimit="10"
            stroke-width="2"
          >
            <animateTransform
              attributeName="transform"
              type="translate"
              values="-10, 0; 0, 0; 0, 0"
              keyTimes="0; 0.66; 1"
              repeatCount="indefinite"
              dur="3s"
              begin="journeysAnimation.begin"
              end="journeysAnimation.end"
            />
          </line>
          <g>
            <path
              d="M41.77,97.54H77.06a12.4,12.4,0,1,1,24.8,0h17.93"
              fill="none"
              stroke="#fff"
              stroke-linecap="round"
              stroke-miterlimit="10"
              stroke-width="2"
            />
          </g>
        </g>

        <g id="cloud-group-1" opacity="0">
          <animate
            id="cloudGroup1"
            attributeType="CSS"
            attributeName="opacity"
            dur="3s"
            begin="cloudGroup2.begin + 1.13s"
            end="journeysAnimation.end"
            values="0; 1; 1; 0; 0"
            keyTimes="0; 0.11; 0.55; 0.66; 1"
            repeatCount="indefinite"
            fill="freeze"
          />

          <animateTransform
            begin="cloudGroup1.begin"
            end="journeysAnimation.end"
            attributeName="transform"
            type="translate"
            values="40, 0; -240, 0; 0, 0"
            keyTimes="0; 0.66; 1"
            repeatCount="indefinite"
            dur="3s"
          />
          <line
            x1="258.96"
            y1="93.19"
            x2="298.74"
            y2="93.19"
            fill="none"
            stroke="#fff"
            stroke-linecap="round"
            stroke-miterlimit="10"
            stroke-width="2"
          >
            <animateTransform
              begin="cloudGroup1.begin"
              end="journeysAnimation.end"
              attributeName="transform"
              type="translate"
              values="0, 0; 20, 0; 0, 0"
              keyTimes="0; 0.66; 1"
              repeatCount="indefinite"
              dur="3s"
            />
          </line>
          <g>
            <path
              d="M278.75,82.91H251.39a12.4,12.4,0,1,0-24.8,0H208.65"
              fill="none"
              stroke="#fff"
              stroke-linecap="round"
              stroke-miterlimit="10"
              stroke-width="2"
            />
            <line
              x1="287.01"
              y1="82.91"
              x2="309.21"
              y2="82.91"
              fill="none"
              stroke="#fff"
              stroke-linecap="round"
              stroke-miterlimit="10"
              stroke-width="2"
            />
          </g>
        </g>
      </g>
    </g>
  </g>

  <g id="ski" opacity="0">
    <animate
      id="skyAnimation"
      begin="windowAppearAnimation.begin + 0.1s"
      end="journeysAnimation.end"
      attributeType="CSS"
      attributeName="opacity"
      dur="0.3s"
      values="0; 1"
      fill="freeze"
      keySplines="0.32 0 0.12 1"
      calcMode="spline"
    />

    <animateTransform
      begin="skyAnimation.begin"
      end="journeysAnimation.end"
      attributeName="transform"
      type="translate"
      values="-120 0; 0 0"
      dur="0.5s"
      keySplines="0.32 0 0.12 1"
      calcMode="spline"
    />

    <path
      d="M91.14,327.79a2.2,2.2,0,0,1-2-2.36l13.66-193.17c1.1-15.49-4.8-21.92-8.75-24.47a1.35,1.35,0,0,1,.53-2.45C103,104,122.18,104,120,134.19L106.43,326.67a2.2,2.2,0,0,1-2.35,2Z"
      fill="#fff"
    />
    <path
      d="M124.5,328.17a2.2,2.2,0,0,1-2.17-2.23l2.24-193.63c0.19-15.53-6.07-21.61-10.16-23.91a1.35,1.35,0,0,1,.39-2.47c8.36-1.9,27.49-3,27.15,27.28l-2.25,192.93a2.2,2.2,0,0,1-2.22,2.18Z"
      fill="#fff"
    />
  </g>

  <g id="chair" opacity="0">
    <animate
      attributeType="CSS"
      attributeName="opacity"
      begin="windowAppearAnimation.begin"
      end="journeysAnimation.end"
      dur="0.5s"
      values="0; 1"
      fill="freeze"
      keySplines="0.32 0 0.12 1"
      calcMode="spline"
    />

    <animateTransform
      attributeName="transform"
      type="translate"
      begin="windowAppearAnimation.begin"
      end="journeysAnimation.end"
      values="-120 0; 0 0"
      dur="0.5s"
      keySplines="0.32 0 0.12 1"
      calcMode="spline"
    />

    <path
      d="M257.5,259.82H196.76V245.63h55.09a9.92,9.92,0,0,1,9.9,9.93,4.26,4.26,0,0,1-4.25,4.25"
      fill="#a67ee5"
    />
    <path
      d="M257.5,259.82H196.76V245.63h55.09a9.92,9.92,0,0,1,9.9,9.93A4.26,4.26,0,0,1,257.5,259.82Z"
      fill="none"
      stroke="#fff"
      stroke-miterlimit="10"
      stroke-width="2"
    />
    <polygon
      points="185.47 328.31 171.5 328.31 165.19 286.72 179.16 286.72 185.47 328.31"
      fill="#a67ee5"
    />
    <polygon
      points="185.47 328.31 171.5 328.31 165.19 286.72 179.16 286.72 185.47 328.31"
      fill="none"
      stroke="#fff"
      stroke-miterlimit="10"
      stroke-width="2"
    />
    <polygon
      points="235.03 328.31 221.06 328.31 214.76 286.72 228.72 286.72 235.03 328.31"
      fill="#a67ee5"
    />
    <polygon
      points="235.03 328.31 221.06 328.31 214.76 286.72 228.72 286.72 235.03 328.31"
      fill="none"
      stroke="#fff"
      stroke-miterlimit="10"
      stroke-width="2"
    />
    <path
      d="M281.33,272.45H225.44a5.59,5.59,0,0,1-5.53-4.77l-10.86-72.24a17.71,17.71,0,0,0-12.49-31.31H141.48L141.16,267l15.77,23.35,47.19,8.39a12.3,12.3,0,0,0,4.22.75h73a13.53,13.53,0,0,0,0-27.06"
      fill="#a67ee5"
    />
    <path
      d="M281.33,272.45H225.44a5.59,5.59,0,0,1-5.53-4.77l-10.86-72.24a17.71,17.71,0,0,0-12.49-31.31H141.48L141.16,267l15.77,23.35,47.19,8.39a12.3,12.3,0,0,0,4.22.75h73A13.53,13.53,0,0,0,281.33,272.45Z"
      fill="none"
      stroke="#fff"
      stroke-miterlimit="10"
      stroke-width="2"
    />
    <path
      d="M162.42,267.69l-10.86-72.24a17.71,17.71,0,1,0-29-13.61,18,18,0,0,0,.79,5.25L138.65,289a12.36,12.36,0,0,0,12.21,10.54h73a13.53,13.53,0,0,0,0-27.05H167.95a5.62,5.62,0,0,1-5.53-4.78"
      fill="#a67ee5"
    />
    <path
      d="M162.42,267.69l-10.86-72.24a17.71,17.71,0,1,0-29-13.61,18,18,0,0,0,.79,5.25L138.65,289a12.36,12.36,0,0,0,12.21,10.54h73a13.53,13.53,0,0,0,0-27.05H167.95A5.62,5.62,0,0,1,162.42,267.69Z"
      fill="none"
      stroke="#fff"
      stroke-miterlimit="10"
      stroke-width="2"
    />
    <path
      d="M206.26,259.82h-72l-2.13-14.19H200.6a9.92,9.92,0,0,1,9.9,9.93,4.26,4.26,0,0,1-4.25,4.25"
      fill="#a67ee5"
    />
    <path
      d="M206.26,259.82h-72l-2.13-14.19H200.6a9.92,9.92,0,0,1,9.9,9.93A4.26,4.26,0,0,1,206.26,259.82Z"
      fill="none"
      stroke="#fff"
      stroke-miterlimit="10"
      stroke-width="2"
    />
    <line
      x1="151.57"
      y1="195.44"
      x2="209.05"
      y2="195.44"
      fill="none"
      stroke="#fff"
      stroke-linecap="round"
      stroke-miterlimit="10"
      stroke-width="2"
    />
  </g>

  <g id="leaf" transform-origin="150 330" opacity="0">
    <animate
      begin="windowAppearAnimation.begin"
      end="journeysAnimation.end"
      attributeType="CSS"
      attributeName="opacity"
      dur="0.5s"
      values="0; 1"
      fill="freeze"
      keySplines="0.32 0 0.12 1"
      calcMode="spline"
    />

    <animateTransform
      begin="windowAppearAnimation.begin"
      end="journeysAnimation.end"
      attributeName="transform"
      type="translate"
      values="-120 0; 0 0"
      dur="0.5s"
      keySplines="0.32 0 0.12 1"
      calcMode="spline"
      additive="sum"
    />

    <animateTransform
      begin="windowAppearAnimation.begin"
      end="journeysAnimation.end"
      attributeName="transform"
      type="rotate"
      values="-6.4; 5; -2.5; 1.2; 0"
      keySplines="0.2 0 0.78 1;0.2 0 0.78 1;0.2 0 0.78 1;0.2 0 0.78 1"
      calcMode="spline"
      dur="1.5s"
      fill="freeze"
      additive="sum"
    />

    <path
      d="M79.18,194A131,131,0,0,1,94.77,220.9a255,255,0,0,1-20.08-23.55,259,259,0,0,1-17.07-25.88A131.72,131.72,0,0,1,79.18,194"
      fill="#36e69a"
    />
    <path
      d="M80.94,214.39a127.19,127.19,0,0,1,22.8,20.49A242.09,242.09,0,0,1,77.9,219.17a235.86,235.86,0,0,1-23.42-18.7,119.82,119.82,0,0,1,26.46,13.92"
      fill="#36e69a"
    />
    <path
      d="M93.66,205.48a258.38,258.38,0,0,0,10.08,29.39,125.63,125.63,0,0,0-4.5-30.52,135.9,135.9,0,0,0-12.06-29.44,260.33,260.33,0,0,0,6.47,30.57"
      fill="#36e69a"
    />
    <path
      d="M107.32,213.52a250.14,250.14,0,0,0,2.06,30.67,119.93,119.93,0,0,0,3.76-30.05,131.24,131.24,0,0,0-4-31.36,238.1,238.1,0,0,0-1.87,30.74"
      fill="#25b774"
    />
    <path
      d="M83.08,229.56a121.93,121.93,0,0,1,26.29,14.64A225.91,225.91,0,0,1,81.21,235a228.11,228.11,0,0,1-26.37-12.69,113.61,113.61,0,0,1,28.25,7.29"
      fill="#25b774"
    />
    <path
      d="M88.06,243.83A118.11,118.11,0,0,1,115.62,255a211,211,0,0,1-28.78-5.6,220.87,220.87,0,0,1-27.42-9.33,114,114,0,0,1,28.65,3.73"
      fill="#25b774"
    />
    <path
      d="M118.71,224.79a238,238,0,0,0-3.1,30.25,117.11,117.11,0,0,0,8.82-28.54,127.44,127.44,0,0,0,1.42-31.19,213.92,213.92,0,0,0-7.15,29.48"
      fill="#25b774"
    />
    <path
      d="M98.86,262a118.24,118.24,0,0,1,27.07,12.34,212.3,212.3,0,0,1-28.53-6.79,220.78,220.78,0,0,1-27-10.45A114.06,114.06,0,0,1,98.86,262"
      fill="#068e4d"
    />
    <path
      d="M130.27,244.29a236.56,236.56,0,0,0-4.34,30.1,116.94,116.94,0,0,0,10-28.16,127.42,127.42,0,0,0,2.71-31.1,214.43,214.43,0,0,0-8.36,29.16"
      fill="#068e4d"
    />
    <path
      d="M108.9,280.69a118.21,118.21,0,0,1,26.54,13.47,213.62,213.62,0,0,1-28.23-8,221.65,221.65,0,0,1-26.55-11.57,113.82,113.82,0,0,1,28.24,6.08"
      fill="#068e4d"
    />
    <path
      d="M141,264.26a236.09,236.09,0,0,0-5.58,29.9,117.46,117.46,0,0,0,11.15-27.73,127.2,127.2,0,0,0,4-31A214.24,214.24,0,0,0,141,264.26"
      fill="#068e4d"
    />
    <path
      d="M92.62,217.67A529.26,529.26,0,0,1,149.48,328"
      fill="none"
      stroke="#36e69a"
      stroke-linecap="round"
      stroke-linejoin="round"
      stroke-width="2"
    />
  </g>
</svg>
